<svg width="114" height="105" viewBox="0 0 114 105" fill="none" xmlns="http://www.w3.org/2000/svg">
<path d="M0 16C0 7.16344 7.16344 0 16 0H98C106.837 0 114 7.16344 114 16V88.6118C114 97.4483 106.837 104.612 98 104.612H16C7.16344 104.612 0 97.4483 0 88.6118V16Z" fill="#D8403A"/>
<path d="M58.341 11.1622L104.444 45.6L100.392 51.1188L91.8705 44.6916V86.6736H24.8116V44.6916L16.2899 51.1188L12.2381 45.6L58.341 11.1622ZM39.9701 49.1625C39.9701 52.6321 41.8442 56.4856 45.5925 60.7228C49.3415 64.9608 53.591 69.2103 58.341 73.4714C63.091 69.2103 67.3406 64.9608 71.0896 60.7228C74.8379 56.4856 76.712 52.6321 76.712 49.1625C76.712 46.3216 75.769 43.97 73.883 42.1077C71.997 40.2447 69.6569 39.3133 66.8628 39.3133C65.1863 39.3133 63.609 39.7034 62.1309 40.4836C60.6521 41.2632 59.3888 42.2237 58.341 43.3651C57.2933 42.2237 56.0184 41.2632 54.5166 40.4836C53.0148 39.7034 51.449 39.3133 49.8193 39.3133C47.0252 39.3133 44.6852 40.2447 42.7991 42.1077C40.9131 43.97 39.9701 46.3216 39.9701 49.1625ZM84.8848 79.6879V39.7324L58.341 19.8945L31.7973 39.7324V79.6879H84.8848Z" fill="white"/>
</svg>
