<svg width="114" height="105" viewBox="0 0 114 105" fill="none" xmlns="http://www.w3.org/2000/svg">
<rect width="114" height="104.612" rx="16" fill="#5CC6ED"/>
<path d="M47.1086 91.4238C43.4792 91.4238 40.442 90.2014 37.9971 87.7565C35.5523 85.3116 34.3299 82.2791 34.3299 78.6587C34.3299 78.1065 34.3898 77.4826 34.5098 76.7869C34.6291 76.0919 34.6128 75.6682 34.4609 75.5156C34.3083 75.3637 33.8846 75.3474 33.1896 75.4667C32.4939 75.5867 31.87 75.6467 31.3178 75.6467C27.6975 75.6467 24.6649 74.4242 22.22 71.9794C19.7752 69.5345 18.5527 66.4974 18.5527 62.8679C18.5527 59.2384 19.7752 56.2013 22.22 53.7564C24.6649 51.3116 27.702 50.0891 31.3315 50.0891C33.3956 50.0891 35.1885 50.437 36.7102 51.1326C38.2312 51.8282 39.4588 52.5672 40.3931 53.3496L58.7139 35.0288C57.9745 34.0946 57.2463 32.8669 56.5291 31.3459C55.812 29.8242 55.4534 28.0313 55.4534 25.9672C55.4534 22.3378 56.6758 19.3006 59.1207 16.8558C61.5655 14.4109 64.6027 13.1885 68.2322 13.1885C71.8616 13.1885 74.8988 14.4109 77.3436 16.8558C79.7885 19.3006 81.0109 22.3332 81.0109 25.9535C81.0109 26.5058 80.9509 27.1297 80.831 27.8253C80.7117 28.5203 80.728 28.9441 80.8799 29.0966C81.0324 29.2486 81.4562 29.2649 82.1512 29.1455C82.8468 29.0256 83.4708 28.9656 84.023 28.9656C87.6433 28.9656 90.6759 30.188 93.1208 32.6329C95.5656 35.0777 96.788 38.1149 96.788 41.7444C96.788 45.3738 95.5656 48.411 93.1208 50.8558C90.6759 53.3007 87.6387 54.5231 84.0093 54.5231C81.9452 54.5231 80.1523 54.1645 78.6306 53.4474C77.1096 52.7302 75.8819 52.002 74.9477 51.2627L56.6269 69.5834C57.4093 70.5177 58.1483 71.7453 58.8439 73.2663C59.5396 74.788 59.8874 76.5809 59.8874 78.645C59.8874 82.2745 58.665 85.3116 56.2201 87.7565C53.7752 90.2014 50.7381 91.4238 47.1086 91.4238ZM51.6072 83.1113C52.7807 81.9593 53.3674 80.4705 53.3674 78.645C53.3674 77.45 53.123 76.3905 52.634 75.4667C52.145 74.5435 51.6723 73.7993 51.216 73.2341C50.1944 71.9301 49.7706 70.534 49.9447 69.0456C50.1187 67.5565 50.8033 66.2144 51.9983 65.0194L70.3181 46.6996C71.4955 45.4993 72.8549 44.8135 74.3961 44.642C75.9374 44.4705 77.3381 44.8738 78.5983 45.8517C79.1636 46.3081 79.9078 46.7808 80.831 47.2697C81.7548 47.7587 82.8142 48.0032 84.0093 48.0032C85.8178 48.0032 87.3131 47.4164 88.4951 46.2429C89.6771 45.0694 90.2681 43.5699 90.2681 41.7444C90.2681 39.9189 89.6771 38.4194 88.4951 37.2458C87.3131 36.0723 85.8178 35.4855 84.0093 35.4855C82.1186 35.4855 80.565 35.404 79.3484 35.2411C78.1312 35.0781 77.0988 34.5728 76.2513 33.7252C75.4037 32.8777 74.8985 31.8453 74.7355 30.6281C74.5725 29.4115 74.491 27.8579 74.491 25.9672C74.491 24.1587 73.9042 22.6634 72.7307 21.4814C71.5572 20.2994 70.0576 19.7084 68.2322 19.7084C66.4067 19.7084 64.9072 20.2994 63.7336 21.4814C62.5601 22.6634 61.9733 24.1587 61.9733 25.9672C61.9733 27.206 62.2123 28.2762 62.6902 29.1778C63.1687 30.0795 63.6469 30.8129 64.1248 31.3782C65.1464 32.6821 65.5702 34.0783 65.3961 35.5667C65.222 37.0558 64.5375 38.3978 63.3424 39.5929L45.0227 57.9127C43.8452 59.1129 42.4859 59.7988 40.9447 59.9703C39.4034 60.1417 38.0027 59.7385 36.7424 58.7605C36.1772 58.3042 35.433 57.8315 34.5098 57.3425C33.586 56.8536 32.5265 56.6091 31.3315 56.6091C29.506 56.6091 28.0173 57.1958 26.8652 58.3694C25.7132 59.5429 25.1372 61.0424 25.1372 62.8679C25.1372 64.6934 25.7132 66.1929 26.8652 67.3664C28.0173 68.54 29.506 69.1267 31.3315 69.1267C33.2222 69.1267 34.7758 69.2082 35.9924 69.3712C37.2096 69.5342 38.242 70.0395 39.0895 70.887C39.9371 71.7346 40.4423 72.7669 40.6053 73.9842C40.7683 75.2007 40.8498 76.7543 40.8498 78.645C40.8498 80.4705 41.4366 81.9593 42.6101 83.1113C43.7836 84.2633 45.2831 84.8393 47.1086 84.8393C48.9341 84.8393 50.4336 84.2633 51.6072 83.1113Z" fill="white"/>
</svg>
