<svg width="114" height="105" viewBox="0 0 114 105" fill="none" xmlns="http://www.w3.org/2000/svg">
<rect width="114" height="104.612" rx="16" fill="#FFDD54"/>
<path d="M22.9535 55.7243C22.8446 54.942 22.7631 54.1596 22.709 53.3773C22.6549 52.5949 22.6278 51.7907 22.6278 50.9647C22.6278 46.075 23.5406 41.4949 25.3661 37.2246C27.1915 32.9543 29.6905 29.2381 32.8629 26.0761C36.036 22.9141 39.7522 20.404 44.0115 18.5459C48.2714 16.6878 52.8244 15.7588 57.6704 15.7588C62.5164 15.7588 67.0746 16.6878 71.3449 18.5459C75.6153 20.404 79.3425 22.9141 82.5267 26.0761C85.7102 29.2381 88.2203 32.9543 90.0569 37.2246C91.8928 41.4949 92.8107 46.075 92.8107 50.9647C92.8107 51.7907 92.7837 52.5949 92.7296 53.3773C92.6755 54.1596 92.594 54.942 92.4851 55.7243H85.8674C85.9977 54.942 86.1011 54.1596 86.1774 53.3773C86.2536 52.5949 86.2918 51.7907 86.2918 50.9647C86.2918 50.1823 86.2644 49.4 86.2096 48.6176C86.1555 47.8353 86.0633 47.0529 85.9329 46.2706H72.6984C72.7636 47.0529 72.807 47.8353 72.8285 48.6176C72.85 49.4 72.8607 50.1823 72.8607 50.9647C72.8607 51.7907 72.85 52.5838 72.8285 53.344C72.807 54.1048 72.7636 54.8983 72.6984 55.7243H66.2763C66.3199 55.0724 66.3418 54.4148 66.3418 53.7518V51.7793C66.3418 50.7798 66.3362 49.8237 66.3252 48.911C66.3141 47.9983 66.2544 47.1181 66.1462 46.2706H49.2924C49.1841 47.1181 49.1137 47.9983 49.0811 48.911C49.0485 49.8237 49.0322 50.7798 49.0322 51.7793V53.7518C49.0322 54.4148 49.0537 55.0724 49.0968 55.7243H42.6756C42.6104 54.942 42.5667 54.1596 42.5446 53.3773C42.523 52.5949 42.5123 51.7907 42.5123 50.9647C42.5123 50.1823 42.523 49.4 42.5446 48.6176C42.5667 47.8353 42.6104 47.0529 42.6756 46.2706H29.5057C29.3753 47.0529 29.283 47.8353 29.2289 48.6176C29.1742 49.4 29.1468 50.1823 29.1468 50.9647C29.1468 51.7907 29.1849 52.5949 29.2612 53.3773C29.3375 54.1596 29.4408 54.942 29.5712 55.7243H22.9535ZM31.396 39.7506H43.4247C43.99 36.4693 44.7508 33.541 45.7072 30.9658C46.663 28.3905 47.8799 25.9294 49.3579 23.5823C45.3157 24.7558 41.7192 26.7606 38.5683 29.5967C35.4167 32.4327 33.0259 35.8173 31.396 39.7506ZM50.1725 39.7506H65.1683C64.603 36.513 63.6792 33.4054 62.3968 30.4279C61.115 27.4504 59.5396 24.6251 57.6704 21.9521C55.8012 24.6251 54.2202 27.4504 52.9274 30.4279C51.6345 33.4054 50.7162 36.513 50.1725 39.7506ZM71.9483 39.7506H84.0425C82.4126 35.8173 80.0056 32.4327 76.8214 29.5967C73.6379 26.7606 70.025 24.7558 65.9829 23.5823C67.4609 25.9731 68.6833 28.445 69.6502 30.998C70.617 33.5518 71.3831 36.4693 71.9483 39.7506ZM54.4109 86.1706V81.4764C54.4109 77.9122 53.1829 74.9024 50.727 72.4471C48.2711 69.9912 45.2613 68.7632 41.6977 68.7632H18.5527V62.2433H41.6977C44.9138 62.2433 47.9073 62.9715 50.6781 64.428C53.4489 65.8838 55.7797 67.8938 57.6704 70.458C59.5611 67.8938 61.8811 65.8838 64.6304 64.428C67.3791 62.9715 70.3618 62.2433 73.5785 62.2433H96.788V68.7632H73.5785C70.058 68.7632 67.0697 70.0019 64.6138 72.4794C62.1578 74.9568 60.9299 77.9559 60.9299 81.4764V86.1706H54.4109Z" fill="white"/>
</svg>
