<svg xmlns="http://www.w3.org/2000/svg" height="40px" viewBox="0 -960 960 960" width="40px" fill="#1f1f1f"><path d="M372-80q-55.67 0-93.17-37.5t-37.5-93.03q0-8.47 1.84-19.14 1.83-10.66-.5-13-2.34-2.33-13-.5-10.67 1.84-19.14 1.84-55.53 0-93.03-37.5T80-372q0-55.67 37.5-93.17t93.17-37.5q31.66 0 55 10.67 23.33 10.67 37.66 22.67l187.34-187.34q-11.34-14.33-22.34-37.66-11-23.34-11-55 0-55.67 37.5-93.17T588-880q55.67 0 93.17 37.5t37.5 93.03q0 8.47-1.84 19.14-1.83 10.66.5 13 2.34 2.33 13 .5 10.67-1.84 19.14-1.84 55.53 0 93.03 37.5T880-588q0 55.67-37.5 93.17t-93.17 37.5q-31.66 0-55-11-23.33-11-37.66-22.34L469.33-303.33q12 14.33 22.67 37.66 10.67 23.34 10.67 55 0 55.67-37.5 93.17T372-80Zm46-85q18-17.67 18-45.67 0-18.33-7.5-32.5Q421-257.33 414-266q-15.67-20-13-42.83 2.67-22.84 21-41.17l187.33-187.33q18.06-18.41 41.7-21.04Q674.67-561 694-546q8.67 7 22.83 14.5 14.17 7.5 32.5 7.5 27.74 0 45.87-18t18.13-46q0-28-18.13-46t-45.87-18q-29 0-47.66-2.5Q683-657 670-670t-15.5-31.67q-2.5-18.66-2.5-47.66 0-27.74-18-45.87t-46-18.13q-28 0-46 18.13t-18 45.87q0 19 7.33 32.83 7.34 13.83 14.67 22.5 15.67 20 13 42.83-2.67 22.84-21 41.17L350.67-422.67q-18.06 18.41-41.7 21.04Q285.33-399 266-414q-8.67-7-22.83-14.5-14.17-7.5-32.5-7.5-28 0-45.67 18t-17.67 46q0 28 17.67 46t45.67 18q29 0 47.66 2.5Q277-303 290-290t15.5 31.67q2.5 18.66 2.5 47.66 0 28 18 45.67t46 17.67q28 0 46-17.67Zm62.67-315.67Z"/></svg>