<svg width="114" height="105" viewBox="0 0 114 105" fill="none" xmlns="http://www.w3.org/2000/svg">
<rect width="114" height="104.612" rx="16" fill="#73E71A"/>
<path d="M81.3366 39.8536L77.816 42.983C77.0336 43.7002 76.0664 44.0913 74.9144 44.1565C73.7631 44.2217 72.731 43.9173 71.8183 43.2432C70.9055 42.5697 70.3403 41.6788 70.1225 40.5704C69.9054 39.4621 69.9491 38.419 70.2536 37.441L71.8828 32.0301L67.971 29.8131C67.0153 29.27 66.3796 28.4984 66.0641 27.4983C65.7492 26.4988 65.7547 25.4668 66.0807 24.4021C66.4067 23.3368 66.9934 22.5271 67.841 21.9729C68.6885 21.4188 69.6883 21.1417 70.8403 21.1417H75.3388L76.708 16.9698C77.0555 15.9045 77.6367 14.9969 78.4516 14.2472C79.2666 13.4974 80.2282 13.1226 81.3366 13.1226C82.4449 13.1226 83.4065 13.4974 84.2215 14.2472C85.0364 14.9969 85.6177 15.9045 85.9652 16.9698L87.3343 21.1417H91.8328C92.8981 21.1417 93.8708 21.4298 94.751 22.0062C95.6311 22.5819 96.2449 23.3805 96.5924 24.4021C96.9621 25.4016 96.9839 26.4229 96.658 27.466C96.332 28.5092 95.68 29.2915 94.7021 29.8131L90.7248 32.0301L92.355 37.441C92.7025 38.4626 92.7677 39.5221 92.5506 40.6193C92.3329 41.7166 91.7676 42.5912 90.8549 43.2432C89.9206 43.8736 88.883 44.167 87.7421 44.1233C86.6011 44.0803 85.6395 43.7002 84.8571 42.983L81.3366 39.8536ZM84.1237 32.209C84.8735 31.4593 85.2483 30.5302 85.2483 29.4219C85.2483 28.3136 84.8735 27.3845 84.1237 26.6348C83.3739 25.885 82.4449 25.5101 81.3366 25.5101C80.2282 25.5101 79.2992 25.885 78.5494 26.6348C77.7997 27.3845 77.4248 28.3136 77.4248 29.4219C77.4248 30.5302 77.7997 31.4593 78.5494 32.209C79.2992 32.9588 80.2282 33.3337 81.3366 33.3337C82.4449 33.3337 83.3739 32.9588 84.1237 32.209ZM63.2124 76.233C64.6682 79.884 64.1682 83.3283 61.7122 86.5659C59.2569 89.8042 55.9538 91.4234 51.8027 91.4234C49.6949 91.4234 47.7554 90.9018 45.984 89.8587C44.2126 88.8155 42.849 87.2942 41.8933 85.2946C37.177 85.8599 33.0315 84.3659 29.4568 80.8127C25.8821 77.2595 24.2903 73.1033 24.6815 68.344C22.7256 67.2793 21.215 65.7201 20.1497 63.6665C19.0851 61.6128 18.5527 59.5428 18.5527 57.4566C18.5527 53.2188 20.1771 49.9861 23.4258 47.7583C26.6752 45.5306 30.3099 45.2861 34.3299 47.0248L40.263 49.4374C41.4366 47.1556 43.0883 45.3571 45.2183 44.0421C47.3476 42.7271 49.6728 42.0044 52.1939 41.874V33.5948H57.3447V42.3962C59.9304 42.983 62.1578 44.2922 64.027 46.3237C65.8962 48.3558 67.1675 50.5236 67.841 52.827H76.5769V58.0433H68.2977C68.1236 60.5638 67.4009 62.889 66.1296 65.019C64.8583 67.1489 63.0817 68.8007 60.7998 69.9742L63.2124 76.233ZM40.0674 78.9057C39.937 77.1454 40.0293 75.3688 40.3442 73.576C40.6597 71.7831 41.1324 70.0391 41.7622 68.344C40.0893 69.1915 38.3453 69.7294 36.5302 69.9576C34.7158 70.1858 32.8959 70.1913 31.0704 69.9742C31.1571 72.2561 32.1187 74.315 33.9553 76.1509C35.7919 77.9874 37.8293 78.9057 40.0674 78.9057ZM32.8307 63.5843C35.2644 63.5843 37.7148 63.0302 40.1819 61.9218C42.6482 60.8135 44.6312 59.7814 46.1307 58.8257L32.9607 53.4137C31.2441 52.6751 29.5001 52.7351 27.7288 53.5937C25.958 54.4517 25.0727 55.7393 25.0727 57.4566C25.0727 59.1516 25.9854 60.5967 27.8109 61.7918C29.6364 62.9868 31.3097 63.5843 32.8307 63.5843ZM51.8027 84.9035C53.6934 84.9035 55.2092 84.2678 56.3502 82.9965C57.4911 81.7251 57.7356 80.2745 57.0836 78.6446L51.4116 64.1065C50.2165 66.0624 49.1137 68.0943 48.1032 70.2021C47.0926 72.3098 46.5874 74.7329 46.5874 77.4711C46.5874 79.058 47.0275 80.6934 47.9076 82.3774C48.7877 84.0614 50.0861 84.9035 51.8027 84.9035ZM58.1916 63.8454C59.5392 62.9764 60.4738 61.9062 60.9954 60.6349C61.517 59.3635 61.7777 58.0107 61.7777 56.5764C61.7777 54.3597 60.9954 52.458 59.4307 50.8711C57.866 49.2849 55.986 48.4918 53.7909 48.4918C52.3566 48.4918 50.9767 48.7959 49.6513 49.4042C48.3258 50.0131 47.3045 50.9803 46.5874 52.3057L54.8021 55.6963L58.1916 63.8454Z" fill="white"/>
</svg>
